<svg width="1357" height="1510" viewBox="0 0 1357 1510" fill="none" xmlns="http://www.w3.org/2000/svg">
<path d="M678.703 0C640.112 8.14302 515.843 35.7586 297.397 92.0517C144.45 131.351 50.6284 156.842 0 170.649C2.12427 265.533 16.6399 499.911 101.611 849.353C184.103 1189.24 482.209 1387.85 678.349 1510C874.844 1387.85 1172.6 1188.88 1255.09 849.353C1340.06 499.911 1354.57 265.533 1356.7 170.649C1306.07 156.842 1212.25 131.351 1059.3 92.0517C841.564 35.7586 717.294 8.49707 678.703 0Z" fill="#0A1172"/>
<mask id="mask0_13_414" style="mask-type:alpha" maskUnits="userSpaceOnUse" x="0" y="0" width="1357" height="1510">
<path d="M678.703 0C640.112 8.14302 515.843 35.7586 297.397 92.0517C144.45 131.351 50.6284 156.842 0 170.649C2.12427 265.533 16.6399 499.911 101.611 849.353C184.103 1189.24 482.209 1387.85 678.349 1510C874.844 1387.85 1172.6 1188.88 1255.09 849.353C1340.06 499.911 1354.57 265.533 1356.7 170.649C1306.07 156.842 1212.25 131.351 1059.3 92.0517C841.564 35.7586 717.294 8.49707 678.703 0Z" fill="#0A1172"/>
</mask>
<g mask="url(#mask0_13_414)">
<rect y="-238" width="678" height="1941" fill="black" fill-opacity="0.06"/>
<rect x="679" y="-238" width="678" height="1941" fill="white" fill-opacity="0.06"/>
<circle cx="176" cy="2121" r="1781" fill="black" fill-opacity="0.12"/>
</g>
<path d="M329.396 154.874L329.406 154.871C526.076 104.177 640.205 78.6179 679.04 70.3463C718.004 78.9285 832.147 104.187 1028.13 154.868L1028.14 154.871L1028.15 154.874C1159.08 188.525 1243.22 211.246 1292.24 224.593C1289.36 318.309 1273.96 529.714 1198.78 838.936L1198.78 838.939C1125 1142.7 861.076 1323.55 678.779 1437.32C496.762 1323.54 232.543 1143.01 158.761 838.942L158.76 838.936C83.5883 529.714 68.1852 318.309 65.3079 224.593C114.32 211.246 198.461 188.525 329.396 154.874Z" stroke="#B4B5B8" stroke-width="30"/>
<path d="M808.833 807.73L808.841 807.743L808.849 807.757C809.831 809.393 810.486 811.219 811.212 813.677C811.39 814.279 811.573 814.924 811.767 815.608C810.444 814.888 809.156 814.177 807.889 813.479C806.511 812.719 805.16 811.974 803.817 811.245C799.383 808.837 795.097 806.634 790.616 804.889C742.423 785.07 687.877 804.761 653.104 852.831L653.103 852.832C621.732 896.255 622.905 950.512 658.024 990.916L658.028 990.921C694.074 1032.24 741.098 1048.07 793.631 1043.11L793.634 1043.11C890.438 1033.89 968.966 988.051 1030.01 911.018C1035.19 904.522 1039.67 900.322 1047.54 898.709L1047.57 898.701L1047.61 898.693C1067.83 894.01 1079.38 872.71 1073.91 852.903C1068.46 832.836 1047.53 820.381 1028.49 826.434C1008.25 832.703 996.489 854.24 1004.29 874.586L1004.3 874.594L1004.3 874.602C1005.91 878.738 1006.08 881.744 1005.44 884.349C1004.78 887.041 1003.19 889.663 1000.61 892.905C951.169 953.57 888.552 991.248 813.259 1005.73L813.25 1005.73C770.281 1014.12 729.702 1008.1 694.63 978.966C666.779 955.697 657.745 921.772 671.143 889.903C684.3 858.614 708.244 839.722 734.435 834.569C760.61 829.418 789.415 837.911 812.508 862.181C817.565 867.629 821.96 873.761 826.403 879.957C827.027 880.827 827.651 881.698 828.278 882.568C831.311 886.889 834.205 891.244 837.295 895.894C839.657 899.448 842.133 903.174 844.873 907.189L848.252 912.14L850.255 906.491C850.641 905.402 850.926 904.671 851.178 904.028C851.317 903.671 851.446 903.341 851.575 902.993C851.884 902.163 852.176 901.269 852.208 900.187C858.483 843.866 848.248 793.705 810.243 747.609L810.242 747.609C767.277 695.529 715.711 668.266 650.326 666.103L650.318 666.103C599.838 664.562 552.772 677.82 506.856 696.473C503.147 697.962 499.331 699.586 495.448 701.238C493.616 702.018 491.769 702.803 489.912 703.584C489.883 702.009 489.844 700.524 489.806 699.108C489.681 694.409 489.577 690.47 489.939 686.528C490.231 684.192 490.51 681.867 490.788 679.553C491.934 670.015 493.058 660.661 494.942 651.483L494.945 651.467L494.949 651.45C513.776 554.296 565.383 486.162 658.906 454.584C662.483 453.411 664.797 453.1 666.714 453.525C668.55 453.932 670.534 455.137 673.126 458.212C687.152 475.257 711.275 474.805 725.791 459.255L725.792 459.254C739.977 444.043 739.353 420.23 724.806 405.973L724.796 405.963L724.785 405.953C709.172 390.94 686.753 392.796 671.779 408.481L671.756 408.505L671.733 408.53C667.546 413.11 662.061 416.995 656.496 418.626L656.474 418.633L656.452 418.639C621.7 429.394 589.27 445.397 560.416 468.825L560.41 468.83C497.307 520.3 466.738 589.929 457.761 670.009C455.497 688.598 456.057 707.766 456.627 727.3C456.886 736.169 457.147 745.113 457.147 754.113V759.193L461.625 756.796C462.847 756.143 464.011 755.514 465.13 754.91C470.374 752.079 474.6 749.797 478.836 748.108L478.845 748.104C487.542 744.603 496.163 741.002 504.754 737.413C527.724 727.818 550.481 718.313 573.92 711.034C614.118 698.696 655.386 696.616 696.324 708.012L696.326 708.013C748.921 722.617 781.651 761.365 808.833 807.73Z" fill="white" stroke="white" stroke-width="6.08572"/>
<path d="M764.171 1080.13L764.158 1080.12L764.144 1080.1C750.332 1065.12 725.704 1062.42 711.945 1078.38C708.063 1082.78 704.435 1084.99 700.707 1086C696.906 1087.02 692.694 1086.87 687.467 1086.01C684.71 1085.53 681.916 1085.37 679.291 1085.26C678.908 1085.25 678.53 1085.23 678.155 1085.22C675.9 1085.12 673.787 1085.04 671.725 1084.8C467.938 1059.99 315.923 889.408 314.35 685.743C315.159 678.198 315.863 670.664 316.566 663.144C317.953 648.312 319.334 633.531 321.51 618.81C349.172 439.677 510.75 295.554 692.806 286.403L692.837 286.401L692.868 286.399C696.902 286.113 700.046 286.285 702.8 287.186C705.493 288.067 708.049 289.723 710.751 292.807L710.763 292.821L710.776 292.835C724.344 307.942 747.308 307.431 761.889 293.617C776.618 279.963 777.251 257.227 763.849 242.63C757.158 235.343 747.656 230.997 738.257 230.311C728.836 229.623 719.25 232.613 712.8 240.361L712.793 240.369C708.349 245.745 703.798 248.61 698.95 250.247C693.999 251.919 688.613 252.359 682.316 252.656L682.272 252.659L682.228 252.662C674.359 253.263 666.491 254.163 658.625 255.364C450.668 285.918 295.775 452.185 281.887 660.101L281.887 660.103C266.185 897.727 451.26 1106.22 690.959 1120.61C695.06 1120.9 698.422 1121.39 701.419 1122.59C704.352 1123.76 707.081 1125.66 709.771 1129C722.754 1145.18 746.706 1144.88 761.854 1131.13L761.865 1131.12L761.876 1131.11C776.593 1117.48 777.568 1095.05 764.171 1080.13Z" fill="white" stroke="white" stroke-width="6.08572"/>
<path d="M531.757 440.275L533.421 442.518L535.798 441.051C574.253 417.329 600.241 402.538 624.945 392.776C649.577 383.042 673.05 378.263 706.504 374.76L706.513 374.759C821.802 362.315 919.246 399.892 997.324 487.32L997.335 487.333L997.346 487.345C998.706 488.834 999.893 491.294 1000.62 494.182C1001.33 497.046 1001.51 499.986 1001.13 502.246L1001.13 502.271L1001.12 502.297C997.88 524.274 1011.23 544.371 1033.09 547.384L1033.1 547.385L1033.11 547.386C1053.26 550.058 1072.67 535.083 1074.98 514.42C1077.63 492.345 1061.65 474.439 1039.22 472.468L1039.19 472.464L1039.15 472.462C1034.93 472.196 1029.69 470.007 1026.99 467.039C929.054 356.631 806.843 318.354 664.135 345.787C610.032 355.985 560.545 379.159 515.69 413.706L513.307 415.541L515.115 417.945C520.861 425.589 526.306 432.927 531.757 440.275Z" fill="white" stroke="white" stroke-width="6.08572"/>
<path d="M401.617 857.366L402.95 860.158L405.72 858.778C409.332 856.978 412.905 855.191 416.451 853.418C430.497 846.395 444.13 839.579 458.147 832.949C471.471 826.767 484.959 821.123 498.55 815.435C502.536 813.767 506.531 812.095 510.532 810.405L510.561 810.393L510.59 810.38C514.909 808.45 518.445 807.133 521.92 807.039C525.222 806.951 528.782 807.97 533.084 811.453L533.089 811.458C548.842 824.151 572.3 817.228 582.878 800.947C593.627 784.702 589.096 761.711 572.767 750.964C556.484 740.149 532.519 742.644 522.79 760.354C517.074 770.661 509.301 774.495 498.774 778.283L498.751 778.291L498.728 778.3C490.019 781.593 481.618 785.181 473.285 788.74L473.257 788.752L473.249 788.755L473.241 788.759C455.723 796.362 438.21 804.23 420.207 812.356C403.056 759.796 398.958 707.512 407.072 653.787C415.639 598.741 437.791 549.255 470.94 504.123L472.737 501.676L470.295 499.873C466.281 496.91 462.638 494.169 459.133 491.53L458.981 491.416C455.534 488.82 452.213 486.321 448.818 483.82L446.496 482.109L444.664 484.336C366.381 579.459 342.34 733.213 401.617 857.366Z" fill="white" stroke="white" stroke-width="6.08572"/>
<path d="M742.629 760.005C736.984 761.466 732.664 762.277 729.212 762.381C725.048 762.507 722.766 761.594 720.999 759.943C718.926 758.005 716.813 754.358 714.67 747.396C713.589 743.886 712.56 739.743 711.517 734.864C722.511 743.648 732.673 751.793 742.629 760.005Z" fill="white" stroke="white" stroke-width="12.1714"/>
</svg>
