<svg width="500" height="250" viewBox="0 0 500 250" fill="none" xmlns="http://www.w3.org/2000/svg">
<rect width="500" height="250" fill="white"/>
<path d="M313.833 110.239V118.663H322.544V110.239H313.833Z" fill="#221F1F"/>
<path d="M355.882 98V106.424H364.522V98H355.882Z" fill="#221F1F"/>
<path d="M373.954 124.425C373.738 107.864 346.521 107.433 345.945 126.441C345.658 133.065 350.698 139.904 358.906 139.904H364.017V140.481C364.017 142.136 363.298 142.641 362.146 142.641H333.561C331.403 130.617 324.489 124.28 313.618 124.28V132.849C317.073 132.849 322.689 136.233 323.481 142.641H304.186L299.289 151.642H366.322C371.146 151.642 374.025 148.905 373.954 144.512C373.954 138.249 374.025 130.688 373.954 124.425ZM359.985 131.049C353.793 131.049 354.369 119.672 360.275 119.672C363.082 119.672 363.875 122.049 363.875 123.704C363.875 126.154 363.946 128.673 363.946 131.049H359.985Z" fill="#221F1F"/>
<path d="M415.353 110.239V118.663H424.066V110.239H415.353Z" fill="#221F1F"/>
<path d="M425 141.564C425 147.682 421.184 151.643 414.058 151.643H392.241C387.849 151.643 383.673 148.546 383.602 142.498L383.312 104.842H393.32L393.539 139.403C393.539 141.419 394.547 142.353 395.912 142.643H411.25C413.41 142.643 414.921 141.564 414.921 139.188C414.921 134.145 414.85 129.179 414.776 124.282H424.858C424.929 132.49 425 134.506 425 141.564Z" fill="#221F1F"/>
<path d="M75 101.237H85.2267L108.846 132.272V101.237H119.791V151.641H110.359L85.9451 119.598V151.641H75V101.237Z" fill="#221F1F"/>
<path d="M127.03 140.55V140.405C127.03 131.981 133.438 128.091 142.583 128.091C146.473 128.091 149.28 128.742 152.015 129.676V129.026C152.015 124.489 149.207 121.97 143.733 121.97C139.556 121.97 136.604 122.762 133.075 124.057L130.338 115.704C134.585 113.833 138.762 112.609 145.314 112.609C151.291 112.609 155.612 114.194 158.346 116.931C161.228 119.81 162.523 124.06 162.523 129.244V151.637H151.938V147.46C149.275 150.413 145.601 152.358 140.275 152.358C133.006 152.361 127.03 148.184 127.03 140.55ZM152.159 138.031V136.087C150.288 135.223 147.838 134.644 145.175 134.644C140.496 134.644 137.614 136.515 137.614 139.973V140.118C137.614 143.071 140.062 144.797 143.591 144.797C148.704 144.797 152.159 141.989 152.159 138.031Z" fill="#221F1F"/>
<path d="M173.254 122.406H168.717V113.406H173.254V110.959C173.254 106.711 174.336 103.614 176.352 101.598C178.368 99.5821 181.32 98.5742 185.207 98.5742C188.663 98.5742 190.968 99.0058 192.984 99.6532V108.727C191.4 108.151 189.886 107.79 188.015 107.79C185.494 107.79 184.055 109.088 184.055 111.967V113.477H192.913V122.406H184.199V151.642H173.254V122.406ZM199.105 99.0768H210.626V108.798H199.105V99.0768ZM199.392 113.046H210.337V151.642H199.392V113.046Z" fill="#221F1F"/>
<path d="M221.853 140.697V122.407H217.245V113.046H221.853V103.18H232.798V113.046H241.872V122.407H232.798V138.897C232.798 141.415 233.877 142.641 236.327 142.641C238.343 142.641 240.143 142.139 241.727 141.273V150.057C239.422 151.426 236.759 152.289 233.088 152.289C226.39 152.289 221.853 149.626 221.853 140.697Z" fill="#221F1F"/>
<path d="M249.359 99.0771H260.304V118.52C262.822 115.28 266.065 112.328 271.61 112.328C279.891 112.328 284.715 117.801 284.715 126.657V151.642H273.77V130.112C273.77 124.928 271.323 122.265 267.144 122.265C262.967 122.265 260.304 124.928 260.304 130.112V151.642H249.359V99.0771Z" fill="#221F1F"/>
</svg>
